<?xml version="1.0" encoding="UTF-8"?>
<!-- Created with Inkscape (http://www.inkscape.org/) -->
<svg width="1889.8" height="885.78" version="1.1" viewBox="0 0 500 234.36" xmlns="http://www.w3.org/2000/svg">
	<g transform="translate(-16.131 201.94)">
		<path d="m194.2 19.672-12.75-12.75 84.618-84.618 84.618 84.618-25.5 25.501-59.118-59.118-59.118 59.118zm-98.838-23.13c-2.3378-0.039986-6.0125-0.28234-8.5002-0.56087-22.107-2.4751-43.126-14.65-55.811-32.327-8.6047-11.991-13.57-25.744-14.767-40.903-0.2066-2.616-0.20747-10.633-0.0015-13.23 1.1602-14.624 5.4692-27.105 13.481-39.05 3.9531-5.8935 9.0035-11.416 14.795-16.178 9.9571-8.1877 21.947-13.997 34.507-16.718 5.9209-1.283 11.038-1.7962 17.895-1.7949 4.4612 1e-3 6.6035 0.11582 10.545 0.56605 12.038 1.375 24.711 6.0527 34.95 12.9 12.401 8.2937 21.416 18.797 27.98 32.601 3.4813 7.3207 5.7567 15.315 6.7851 23.839 1.2633 10.471 0.56328 22.307-1.8557 31.38-2.4852 9.3211-6.0804 17.28-11.145 24.67-1.8562 2.7087-4.8713 6.4748-7.1461 8.926l-1.2255 1.3206 1.149 1.1719c0.63191 0.64454 4.906 5.0545 9.498 9.7999 4.5919 4.7454 9.2164 9.5052 10.277 10.577l1.9277 1.9493-22.11-0.01921-5.6242-5.8718c-3.0933-3.2295-5.9493-6.1944-6.3466-6.5888l-0.72242-0.71697-2.4732 1.5314c-6.157 3.8125-8.4039 4.9811-13.21 6.8704-3.6021 1.4159-7.0329 2.4825-11.504 3.5765-5.6657 1.3862-10.54 2.0573-15.85 2.1823-1.5466 0.0365-3.0709 0.078911-3.3873 0.094427-0.31635 0.015539-1.2654 0.016459-2.109 0.00194zm6.5828-15.821c4.3758-0.38981 9.1086-1.2138 13.23-2.3033 3.7957-1.0035 7.9742-2.732 11.951-4.944 1.9798-1.1011 4.7294-2.8573 4.7294-3.0207 0-0.06084-8.3691-8.7213-18.598-19.245-10.229-10.524-18.598-19.161-18.598-19.194 0-0.03254 4.9399-0.05923 10.978-0.05923h10.978l12.123 12.367c6.6677 6.8017 12.83 13.086 13.694 13.965l1.5709 1.5978 0.51394-0.57522c0.83119-0.93015 3.4237-4.1617 4.6348-5.777 1.8031-2.4051 3.191-4.691 4.7967-7.8999 2.1148-4.2266 3.361-7.4683 4.6724-12.155 1.9938-7.1249 2.6378-15.393 1.8681-23.979-1.1377-12.691-6.7058-25.804-15.2-35.799-1.543-1.8154-5.3068-5.5913-7.1693-7.1923-7.781-6.6884-18.148-11.788-28.063-13.805-7.316-1.4881-14.988-1.7069-22.49-0.64127-11.444 1.6255-22.853 6.8568-32.083 14.711-1.8528 1.5765-5.6048 5.3244-7.0959 7.0882-8.7504 10.351-13.996 23.172-15.089 36.877-0.19062 2.3919-0.18996 8.4854 9.68e-4 10.865 0.90614 11.281 4.6003 22.004 10.749 31.2 3.6931 5.5233 9.1244 11.24 14.439 15.197 3.375 2.5131 6.4103 4.3761 10.226 6.2768 7.434 3.7032 13.892 5.5548 22.241 6.3761 3.0148 0.29662 8.0919 0.32941 10.993 0.07101zm339.62 10.965c-6.7142-0.10719-14.486-1.1735-20.388-2.7972-13.671-3.7613-25.875-10.786-35.522-20.447-6.5817-6.5907-11.984-14.458-15.813-23.026-4.0067-8.9675-6.0532-17.135-6.9116-27.585-0.20479-2.493-0.20338-10.57 2e-3 -13.038 0.48825-5.8594 1.423-11.309 2.7186-15.85 4.4874-15.727 13.299-29.472 25.296-39.459 10.997-9.155 24.746-15.379 38.73-17.533 12.358-1.9038 23.81-1.315 36.621 1.8826 5.9008 1.4728 11.589 3.7757 16.553 6.7014 8.1192 4.7854 15.767 11.127 21.537 17.859 2.3959 2.795 4.9435 6.1185 4.7832 6.2402-0.0786 0.0597-11.747 10.673-12.2 11.097l-0.38727 0.36229-1.0767-1.4998c-4.036-5.623-10.125-12.087-14.893-15.811-2.905-2.2685-7.481-5.0608-11.632-7.0978-2.6309-1.2911-3.8905-1.8206-5.8798-2.4718-5.0046-1.6382-9.7044-2.404-16.106-2.6245-15.399-0.53035-28.053 2.9078-39.973 10.862-6.6155 4.4141-12.798 10.758-16.989 17.433-5.2962 8.435-8.4342 17.255-9.6869 27.226-0.75514 6.011-0.77687 12.763-0.0608 18.918 0.85692 7.3649 3.0445 14.713 6.1322 20.598 3.4358 6.5483 6.7993 11.225 11.381 15.824 7.2493 7.2767 15.425 12.237 25.272 15.333 7.2101 2.2666 13.486 3.2732 20.409 3.2732 9.8115 0 18.761-2.1426 26.842-6.4265 8.3374-4.4198 15.499-11.089 20.139-18.754 2.2688-3.7479 4.7478-9.8805 5.7969-14.341 0.61987-2.6357 1.1988-6.6205 1.3152-9.0508l0.0397-0.83085-46.463-0.0646v-15.721h64.973l-0.0787 4.3779c-0.10486 5.8615-0.43041 9.6311-1.2492 14.476-2.1733 12.854-6.2605 23.449-12.498 32.401-1.1539 1.6556-1.8984 2.577-4.546 5.6266-3.9802 4.5843-6.526 6.9888-10.554 9.9688-5.2276 3.8671-10.032 6.4821-16.818 9.1532-7.6761 3.0215-15.116 4.5246-23.382 4.7235-1.4764 0.035629-2.9431 0.077329-3.2595 0.092863-0.31638 0.015539-1.2942 0.016798-2.173 0.0029zm-247.37-34.263-12.75-12.75 84.618-84.618 84.618 84.618-25.5 25.501-59.118-59.118-59.118 59.118zm0-61.994-12.75-12.75 84.618-84.618 84.618 84.618-25.5 25.501-59.118-59.118-59.118 59.118z" stroke-width=".12782"/>
	</g>
</svg>
